<svg width="40" height="40" viewBox="0 0 40 40" fill="none" xmlns="http://www.w3.org/2000/svg">
<path d="M20 10C18.2618 10.0022 16.5953 10.6937 15.3662 11.9228C14.1371 13.152 13.4456 14.8184 13.4434 16.5567H16.7767C16.7767 14.7783 18.2234 13.3333 20 13.3333C21.7767 13.3333 23.2234 14.7783 23.2234 16.5567C23.2234 17.5533 22.4217 18.2767 21.1967 19.2667C20.7965 19.5802 20.4121 19.9134 20.045 20.265C18.3817 21.9267 18.3334 23.6917 18.3334 23.8883V25H21.6667L21.665 23.945C21.6667 23.9183 21.72 23.3017 22.4 22.6233C22.65 22.3733 22.965 22.1233 23.2917 21.86C24.59 20.8083 26.555 19.22 26.555 16.5567C26.5537 14.8184 25.8627 13.1517 24.6337 11.9225C23.4048 10.6932 21.7383 10.0018 20 10ZM18.3334 26.6667H21.6667V30H18.3334V26.6667Z" fill="white"/>
<path d="M20.0002 3.33334C10.8102 3.33334 3.3335 10.81 3.3335 20C3.3335 29.19 10.8102 36.6667 20.0002 36.6667C29.1902 36.6667 36.6668 29.19 36.6668 20C36.6668 10.81 29.1902 3.33334 20.0002 3.33334ZM20.0002 33.3333C12.6485 33.3333 6.66683 27.3517 6.66683 20C6.66683 12.6483 12.6485 6.66668 20.0002 6.66668C27.3518 6.66668 33.3335 12.6483 33.3335 20C33.3335 27.3517 27.3518 33.3333 20.0002 33.3333Z" fill="white"/>
</svg>
