<svg width="40" height="40" viewBox="0 0 40 40" fill="none" xmlns="http://www.w3.org/2000/svg">
<path d="M20.0002 26.6667C23.6768 26.6667 26.6668 23.6767 26.6668 20C26.6668 16.3233 23.6768 13.3333 20.0002 13.3333C16.3235 13.3333 13.3335 16.3233 13.3335 20C13.3335 23.6767 16.3235 26.6667 20.0002 26.6667ZM20.0002 16.6667C21.8068 16.6667 23.3335 18.1933 23.3335 20C23.3335 21.8067 21.8068 23.3333 20.0002 23.3333C18.1935 23.3333 16.6668 21.8067 16.6668 20C16.6668 18.1933 18.1935 16.6667 20.0002 16.6667Z" fill="white"/>
<path d="M4.74179 26.8933L6.40846 29.7767C7.29346 31.305 9.42346 31.8783 10.9585 30.9933L11.8401 30.4833C12.8044 31.2418 13.8675 31.8654 15.0001 32.3367V33.3333C15.0001 35.1717 16.4951 36.6667 18.3335 36.6667H21.6668C23.5051 36.6667 25.0001 35.1717 25.0001 33.3333V32.3367C26.1324 31.8653 27.1954 31.2424 28.1601 30.485L29.0418 30.995C30.5801 31.8783 32.7051 31.3083 33.5935 29.7767L35.2585 26.895C35.7002 26.1295 35.8199 25.22 35.5915 24.3662C35.3631 23.5125 34.8051 22.7843 34.0401 22.3417L33.1985 21.855C33.3774 20.6259 33.3774 19.3774 33.1985 18.1483L34.0401 17.6617C34.8047 17.2187 35.3624 16.4906 35.5908 15.6369C35.8192 14.7833 35.6997 13.8739 35.2585 13.1083L33.5935 10.2267C32.7085 8.69334 30.5801 8.11834 29.0418 9.00668L28.1601 9.51668C27.1959 8.75819 26.1328 8.13467 25.0001 7.66334V6.66668C25.0001 4.82834 23.5051 3.33334 21.6668 3.33334H18.3335C16.4951 3.33334 15.0001 4.82834 15.0001 6.66668V7.66334C13.8679 8.13475 12.8048 8.75765 11.8401 9.51501L10.9585 9.00501C9.41846 8.12001 7.29179 8.69334 6.40679 10.225L4.74179 13.1067C4.3001 13.8722 4.18031 14.7817 4.40875 15.6355C4.63719 16.4892 5.19517 17.2174 5.96013 17.66L6.80179 18.1467C6.62218 19.3751 6.62218 20.6232 6.80179 21.8517L5.96013 22.3383C5.19539 22.7816 4.63767 23.5101 4.40928 24.364C4.18089 25.2179 4.30047 26.1275 4.74179 26.8933ZM10.2851 22.2967C10.0969 21.5456 10.0012 20.7743 10.0001 20C10.0001 19.23 10.0968 18.4567 10.2835 17.7033C10.3714 17.3522 10.3424 16.982 10.2011 16.6488C10.0598 16.3156 9.81367 16.0375 9.50013 15.8567L7.62846 14.7733L9.29179 11.8917L11.2001 12.995C11.5113 13.1751 11.8726 13.2494 12.2296 13.2067C12.5866 13.164 12.9201 13.0067 13.1801 12.7583C14.3077 11.6859 15.6673 10.888 17.1535 10.4267C17.4948 10.3225 17.7937 10.1114 18.0062 9.82456C18.2186 9.53772 18.3333 9.19027 18.3335 8.83334V6.66668H21.6668V8.83334C21.6669 9.19027 21.7817 9.53772 21.9941 9.82456C22.2065 10.1114 22.5054 10.3225 22.8468 10.4267C24.3326 10.8887 25.6922 11.6865 26.8201 12.7583C27.0804 13.0062 27.4139 13.1632 27.7708 13.2059C28.1277 13.2485 28.4888 13.1746 28.8001 12.995L30.7068 11.8933L32.3735 14.775L30.5001 15.8567C30.1868 16.0377 29.9409 16.3158 29.7995 16.649C29.6582 16.9821 29.6292 17.3522 29.7168 17.7033C29.9035 18.4567 30.0001 19.23 30.0001 20C30.0001 20.7683 29.9035 21.5417 29.7151 22.2967C29.6277 22.648 29.657 23.0182 29.7986 23.3514C29.9402 23.6846 30.1865 23.9626 30.5001 24.1433L32.3718 25.225L30.7085 28.1067L28.8001 27.005C28.489 26.8247 28.1277 26.7502 27.7706 26.7929C27.4135 26.8356 27.08 26.9931 26.8201 27.2417C25.6926 28.3141 24.3329 29.112 22.8468 29.5733C22.5054 29.6776 22.2065 29.8886 21.9941 30.1755C21.7817 30.4623 21.6669 30.8098 21.6668 31.1667L21.6701 33.3333H18.3335V31.1667C18.3333 30.8098 18.2186 30.4623 18.0062 30.1755C17.7937 29.8886 17.4948 29.6776 17.1535 29.5733C15.6676 29.1113 14.3081 28.3135 13.1801 27.2417C12.9206 26.9924 12.5869 26.8345 12.2295 26.7921C11.8722 26.7497 11.5108 26.825 11.2001 27.0067L9.29346 28.11L7.62679 25.2283L9.50013 24.1433C9.81378 23.9626 10.06 23.6846 10.2017 23.3514C10.3433 23.0182 10.3726 22.648 10.2851 22.2967Z" fill="white"/>
</svg>
