<svg width="40" height="40" viewBox="0 0 40 40" fill="none" xmlns="http://www.w3.org/2000/svg">
<path d="M10 36.6667H35V33.3333H10.02C9.25 33.3133 8.33333 33.0083 8.33333 31.6667C8.33333 30.325 9.25 30.02 10.02 30H35V6.66667C35 4.82834 33.505 3.33334 31.6667 3.33334H10C7.99 3.33334 5 4.665 5 8.33334V31.6667C5 35.335 7.99 36.6667 10 36.6667ZM8.33333 13.3333V8.33334C8.33333 6.99167 9.25 6.68667 10 6.66667H31.6667V26.6667H8.33333V13.3333Z" fill="white"/>
<path d="M13.3335 10H28.3335V13.3333H13.3335V10Z" fill="white"/>
</svg>
