<svg width="40" height="40" viewBox="0 0 40 40" fill="none" xmlns="http://www.w3.org/2000/svg">
<path d="M31.6667 22.6433V16.6667C31.6667 11.305 28.025 6.78833 23.0917 5.42999C22.6033 4.19999 21.41 3.33333 20 3.33333C18.59 3.33333 17.3967 4.19999 16.9083 5.42999C11.975 6.78999 8.33334 11.305 8.33334 16.6667V22.6433L5.48834 25.4883C5.33326 25.6428 5.21028 25.8265 5.12648 26.0287C5.04267 26.2309 4.99968 26.4478 5 26.6667V30C5 30.442 5.1756 30.8659 5.48816 31.1785C5.80072 31.4911 6.22464 31.6667 6.66667 31.6667H33.3333C33.7754 31.6667 34.1993 31.4911 34.5119 31.1785C34.8244 30.8659 35 30.442 35 30V26.6667C35.0003 26.4478 34.9573 26.2309 34.8735 26.0287C34.7897 25.8265 34.6667 25.6428 34.5117 25.4883L31.6667 22.6433ZM31.6667 28.3333H8.33334V27.3567L11.1783 24.5117C11.3334 24.3572 11.4564 24.1735 11.5402 23.9713C11.624 23.769 11.667 23.5522 11.6667 23.3333V16.6667C11.6667 12.0717 15.405 8.33333 20 8.33333C24.595 8.33333 28.3333 12.0717 28.3333 16.6667V23.3333C28.3333 23.7767 28.5083 24.2 28.8217 24.5117L31.6667 27.3567V28.3333ZM20 36.6667C21.0322 36.668 22.0391 36.3477 22.8808 35.7503C23.7225 35.1529 24.3572 34.3081 24.6967 33.3333H15.3033C15.6428 34.3081 16.2775 35.1529 17.1192 35.7503C17.9609 36.3477 18.9678 36.668 20 36.6667Z" fill="white"/>
</svg>
