<svg width="40" height="40" viewBox="0 0 40 40" fill="none" xmlns="http://www.w3.org/2000/svg">
<path d="M20 3.33333C18.3518 3.33333 16.7407 3.82207 15.3702 4.73775C13.9998 5.65343 12.9317 6.95492 12.301 8.47763C11.6703 10.0003 11.5052 11.6759 11.8268 13.2924C12.1483 14.9089 12.942 16.3938 14.1074 17.5592C15.2729 18.7247 16.7577 19.5183 18.3742 19.8399C19.9908 20.1614 21.6663 19.9964 23.189 19.3657C24.7117 18.7349 26.0132 17.6668 26.9289 16.2964C27.8446 14.926 28.3333 13.3148 28.3333 11.6667C28.3333 9.45652 27.4554 7.33691 25.8926 5.77411C24.3298 4.2113 22.2101 3.33333 20 3.33333ZM20 16.6667C19.0111 16.6667 18.0444 16.3734 17.2221 15.824C16.3999 15.2746 15.759 14.4937 15.3806 13.5801C15.0022 12.6664 14.9031 11.6611 15.0961 10.6912C15.289 9.7213 15.7652 8.83039 16.4645 8.13113C17.1637 7.43187 18.0546 6.95566 19.0245 6.76274C19.9945 6.56981 20.9998 6.66883 21.9134 7.04726C22.827 7.4257 23.6079 8.06656 24.1573 8.88881C24.7068 9.71106 25 10.6778 25 11.6667C25 12.9927 24.4732 14.2645 23.5355 15.2022C22.5979 16.1399 21.3261 16.6667 20 16.6667ZM35 35V33.3333C35 30.2391 33.7708 27.2717 31.5829 25.0837C29.395 22.8958 26.4275 21.6667 23.3333 21.6667H16.6667C13.5725 21.6667 10.605 22.8958 8.41709 25.0837C6.22916 27.2717 5 30.2391 5 33.3333V35H8.33333V33.3333C8.33333 31.1232 9.21131 29.0036 10.7741 27.4408C12.3369 25.878 14.4565 25 16.6667 25H23.3333C25.5435 25 27.6631 25.878 29.2259 27.4408C30.7887 29.0036 31.6667 31.1232 31.6667 33.3333V35H35Z" fill="white"/>
</svg>
