<svg width="40" height="40" viewBox="0 0 40 40" fill="none" xmlns="http://www.w3.org/2000/svg">
<path d="M5 5V33.3333C5 33.7754 5.17559 34.1993 5.48816 34.5118C5.80072 34.8244 6.22464 35 6.66667 35H35V31.6667H8.33333V5H5Z" fill="white"/>
<path d="M25.4881 24.5117C25.6428 24.6666 25.8264 24.7895 26.0286 24.8733C26.2308 24.9572 26.4476 25.0003 26.6665 25.0003C26.8853 25.0003 27.1021 24.9572 27.3043 24.8733C27.5065 24.7895 27.6901 24.6666 27.8448 24.5117L36.1781 16.1783L33.8215 13.8217L26.6665 20.9767L22.8448 17.155C22.6901 17.0001 22.5065 16.8772 22.3043 16.7933C22.1021 16.7095 21.8853 16.6663 21.6665 16.6663C21.4476 16.6663 21.2308 16.7095 21.0286 16.7933C20.8264 16.8772 20.6428 17.0001 20.4881 17.155L12.1548 25.4883L14.5115 27.845L21.6665 20.69L25.4881 24.5117Z" fill="white"/>
</svg>
