<svg width="53" height="54" viewBox="0 0 53 54" fill="none" xmlns="http://www.w3.org/2000/svg">
<path d="M26.4779 4.66016C14.2879 4.66016 4.39453 14.5535 4.39453 26.7435C4.39453 38.9335 14.2879 48.8268 26.4779 48.8268C38.6679 48.8268 48.5612 38.9335 48.5612 26.7435C48.5612 14.5535 38.6679 4.66016 26.4779 4.66016ZM34.45 18.661C36.8129 18.661 38.712 20.5602 38.712 22.9231C38.712 25.286 36.8129 27.1852 34.45 27.1852C32.087 27.1852 30.1879 25.286 30.1879 22.9231C30.1658 20.5602 32.087 18.661 34.45 18.661ZM21.2 15.1718C24.0708 15.1718 26.4116 17.5127 26.4116 20.3835C26.4116 23.2543 24.0708 25.5952 21.2 25.5952C18.3291 25.5952 15.9883 23.2543 15.9883 20.3835C15.9883 17.4906 18.307 15.1718 21.2 15.1718ZM21.2 35.3339V43.6152C15.9 41.9589 11.7041 37.8735 9.84911 32.6618C12.1679 30.1885 17.9537 28.9297 21.2 28.9297C22.3704 28.9297 23.85 29.1064 25.3958 29.4156C21.7741 31.3368 21.2 33.8764 21.2 35.3339ZM26.4779 44.4102C25.8816 44.4102 25.3074 44.3881 24.7333 44.3218V35.3339C24.7333 32.1981 31.2258 30.6302 34.45 30.6302C36.8129 30.6302 40.8983 31.4914 42.93 33.1697C40.3462 39.7285 33.9641 44.4102 26.4779 44.4102Z" fill="white"/>
</svg>
