<svg width="112" height="50" viewBox="0 0 112 50" fill="none" xmlns="http://www.w3.org/2000/svg">
<path d="M47.5513 0.922433C47.5513 0.607163 47.8082 0.315247 48.1585 0.315247H61.283C61.6333 0.315247 61.8902 0.607163 61.8902 0.922433V4.41376C61.8902 4.72903 61.6333 5.02094 61.283 5.02094H52.5022V8.99101H59.73C60.0453 8.99101 60.3372 9.28293 60.3372 9.5982V13.0895C60.3372 13.4398 60.057 13.6967 59.73 13.6967H52.5022V18.0171H61.283C61.6333 18.0171 61.8902 18.309 61.8902 18.6243V22.1156C61.8902 22.4309 61.6333 22.7228 61.283 22.7228H48.1585C47.8082 22.7228 47.5513 22.4309 47.5513 22.1156V0.922433Z" fill="white"/>
<path d="M63.782 20.5746C63.5251 20.3177 63.4317 20.0258 63.6536 19.6171L65.1132 17.0249C65.3701 16.6045 65.8721 16.6045 66.1874 16.8381C67.0748 17.4453 68.6862 18.6013 70.6946 18.6013C71.9674 18.6013 72.8781 17.8072 72.8781 16.6863C72.8781 15.3435 71.7105 14.4794 69.6087 13.4518C66.5377 11.9455 63.4551 10.2174 63.4551 6.37578C63.4551 3.2114 65.8955 0.0119934 70.7764 0.0119934C74.0692 0.0119934 76.6147 1.70511 77.5605 2.41739C77.9458 2.63924 77.8758 3.2114 77.7473 3.44493L76.1359 5.90871C75.9141 6.25901 75.377 6.5159 74.7464 6.13057C74.0225 5.61679 72.1425 4.40242 70.4611 4.40242C69.1299 4.40242 68.5228 5.23146 68.5228 6.1656C68.5228 7.2165 69.7605 8.05722 71.979 9.14315C74.7698 10.521 78.3779 12.0857 78.3779 16.4411C78.3779 19.7339 75.5521 23.0617 70.8931 23.0617C66.7713 23.0617 64.4943 21.3336 63.7587 20.598L63.782 20.5746Z" fill="white"/>
<path d="M57.7332 26.9621C60.9092 26.9621 63.2446 27.9546 65.4047 29.9396C65.685 30.1965 65.685 30.5818 65.4398 30.8387L62.9643 33.4309C62.7425 33.6528 62.3922 33.6528 62.1703 33.4309C60.8742 32.2749 59.438 31.7962 57.885 31.7962C54.3002 31.7962 51.673 34.8088 51.673 38.3818C51.673 41.9549 54.3353 44.8741 57.92 44.8741C59.6598 44.8741 61.026 44.3253 62.1703 43.3327C62.3922 43.1459 62.8008 43.1459 62.9993 43.3678L65.4748 46.0184C65.6967 46.2402 65.6616 46.6606 65.4398 46.8825C63.2796 48.9959 60.5589 49.9884 57.7332 49.9884C51.3927 49.9884 46.29 44.8974 46.29 38.4986C46.29 32.0998 51.3927 26.9504 57.7332 26.9504V26.9621Z" fill="white"/>
<path d="M77.3496 26.9618C83.69 26.9618 88.7577 32.1112 88.7577 38.51C88.7577 44.9088 83.69 49.9999 77.3496 49.9999C71.0092 49.9999 65.9648 44.9088 65.9648 38.51C65.9648 32.1112 71.0092 26.9618 77.3496 26.9618ZM77.3496 44.8738C80.8409 44.8738 83.69 41.9897 83.69 38.51C83.69 35.0304 80.8409 32.0762 77.3496 32.0762C73.8583 32.0762 71.0442 34.9837 71.0442 38.51C71.0442 42.0364 73.8933 44.8738 77.3496 44.8738Z" fill="white"/>
<path d="M91.2456 27.8837C91.2456 27.5684 91.5025 27.2765 91.8528 27.2765H95.6244C95.9396 27.2765 96.2315 27.5684 96.2315 27.8837V44.9666H103.775C104.125 44.9666 104.382 45.2585 104.382 45.5738V49.0651C104.382 49.3804 104.125 49.6723 103.775 49.6723H91.8528C91.5025 49.6723 91.2456 49.3804 91.2456 49.0651V27.8837Z" fill="white"/>
<path d="M106.145 27.8837C106.145 27.5684 106.425 27.2765 106.752 27.2765H110.558C110.874 27.2765 111.165 27.5684 111.165 27.8837V49.0651C111.165 49.3804 110.885 49.6723 110.558 49.6723H106.752C106.436 49.6723 106.145 49.3804 106.145 49.0651V27.8837Z" fill="white"/>
<path d="M77.3146 38.627C78.1852 38.627 78.891 37.9212 78.891 37.0506C78.891 36.18 78.1852 35.4743 77.3146 35.4743C76.444 35.4743 75.7383 36.18 75.7383 37.0506C75.7383 37.9212 76.444 38.627 77.3146 38.627Z" fill="white"/>
<path d="M76.7308 37.4355L76.1353 41.569H78.6924L77.9101 37.4355H76.7308Z" fill="white"/>
<path d="M6.33132 26.8101C6.33132 26.8101 6.58821 27.464 6.24959 27.6742C6.21456 27.6275 6.1912 27.5924 6.16785 27.5457C6.08611 27.4056 5.92264 27.3356 5.77084 27.3706C5.35048 27.4757 4.69659 27.7442 4.93012 28.3748C4.93012 28.3748 4.97683 28.4915 5.07024 28.655C1.91754 30.243 0.714844 28.7134 0.714844 28.7134C1.70736 27.3589 4.55647 25.9577 5.31545 25.5957C5.37383 25.5724 5.43222 25.5607 5.4906 25.5724C5.56066 25.5724 5.63072 25.6191 5.67743 25.6775C5.86425 25.911 6.15617 26.3664 6.33132 26.8218V26.8101Z" fill="white"/>
<path d="M31.7753 48.0967L13.9567 37.8796L11.1543 38.1015L31.8921 50V48.085L31.857 48.1434L31.7753 48.0967Z" fill="white"/>
<path d="M41.6538 12.0737C41.6538 6.04851 37.5786 1.06258 32.2541 0.14012L32.1607 0.163473C29.7319 0.642217 27.3265 2.12515 25.575 4.22695C23.7301 6.43384 22.7259 9.11948 22.7259 11.7934C22.7259 12.2722 22.7609 12.7509 22.8077 13.2297C22.6559 13.2063 22.4924 13.183 22.3406 13.1713C22.2939 12.7159 22.2705 12.2605 22.2705 11.8051C22.2705 9.02606 23.3214 6.23534 25.2247 3.94671C26.7894 2.07845 28.8445 0.677247 30.9813 0.0116769C30.8178 0.0116769 30.6544 0 30.4792 0C24.3139 0 19.3047 5.4063 19.3047 12.0854C19.3047 12.3306 19.3047 12.5874 19.328 12.8327C19.1529 12.821 19.0244 12.821 18.9544 12.8327C18.4523 12.891 17.0627 14.0354 15.9885 14.9695C15.9184 15.0279 15.8834 15.1096 15.8717 15.203C15.8717 15.2731 15.8834 15.3431 15.9301 15.4015L15.6265 15.6818C15.2645 15.4949 14.9726 15.53 14.7858 15.6584C14.6807 15.7285 14.6106 15.8803 14.599 16.0437C14.5873 16.2072 14.634 16.359 14.7391 16.4875L14.6106 16.5925C13.7816 16.5225 13.2795 16.6276 13.1043 16.6743C12.9409 16.5225 12.6723 16.4758 12.4037 16.5692C12.4037 16.5692 11.5747 16.8611 11.4229 17.3749C11.3645 17.5617 11.3995 17.7369 11.528 17.9003C11.3762 18.1806 11.4112 18.4491 11.6214 18.6593C11.6681 18.706 11.7148 18.7411 11.7732 18.7644C11.7732 18.9279 11.8316 19.0797 11.96 19.2081C12.0768 19.3249 12.2519 19.3949 12.4621 19.3949C12.5205 19.3949 12.5672 19.3949 12.6256 19.3949C12.9409 19.3482 13.2561 19.2899 13.5597 19.1964C13.8049 19.3599 14.0502 19.4417 14.2837 19.4417C14.4005 19.4417 14.5172 19.4183 14.634 19.3716C15.2295 19.1381 15.5681 18.3324 15.6966 17.8303L15.9301 17.6785C16.0585 17.8653 16.222 17.912 16.3388 17.9237C16.3621 17.9237 16.3738 17.9237 16.3972 17.9237C16.5606 17.9237 16.7008 17.8536 16.7825 17.7719C16.9576 17.5967 16.9576 17.3399 16.8526 17.0596L17.2379 16.8027L17.3663 16.9428C17.4247 17.0129 17.5064 17.0479 17.5999 17.0479C17.6816 17.0479 17.7633 17.0129 17.8217 16.9545L17.9151 16.8728C18.3238 16.4875 18.7091 16.1138 19.2229 16.1372C19.2696 16.1372 19.3163 16.1372 19.3747 16.1372C17.4364 18.0638 16.1403 20.586 16.1286 20.6093L16.1052 20.6677V20.7261C16.1052 20.7261 16.1052 20.7261 16.1169 20.7494C15.7433 20.9363 14.704 21.6602 13.9451 24.1824C13.84 24.521 13.7466 24.848 13.6531 25.1632C13.081 27.1599 12.7073 28.4677 11.096 28.7713C9.49625 29.0632 7.98996 28.3042 7.5696 28.0707C7.39445 27.9656 7.17259 28.0123 7.04415 28.1758C6.90403 28.0824 6.70553 27.9072 6.55373 27.7087C6.72888 27.3701 6.55373 26.8797 6.53038 26.8096C6.35523 26.3542 6.06331 25.8755 5.85313 25.6069C5.80642 25.5486 5.75972 25.5135 5.70133 25.4785C5.6663 25.3734 5.45612 24.8596 5.02409 24.8596H4.9657C4.84894 24.8947 2.1633 25.642 0.108208 27.8255C-0.0319115 27.9656 -0.0319115 28.1992 0.0848552 28.3743C0.189945 28.5261 0.365095 28.7363 0.575275 28.8998C0.680365 29.0282 1.2642 29.6237 2.49025 29.6237C3.12079 29.6237 3.9148 29.4602 4.90732 28.9932C5.08247 29.2851 5.33936 29.6237 5.65463 29.8806L5.36271 30.2426C5.23427 30.3944 5.23427 30.6045 5.36271 30.768C5.80642 31.3168 7.90822 33.7456 10.4187 33.7456C10.7573 33.7456 11.1076 33.6989 11.4579 33.5938C12.1469 33.3953 12.9525 32.9866 13.7816 32.4728L10.9558 37.6456L13.8516 37.412L18.4873 28.9348C18.5807 28.9465 18.7558 28.9815 18.966 29.0048L14.307 37.5288L31.8921 47.6058V24.0306C37.3918 23.2833 41.6538 18.2039 41.6538 12.0503V12.0737ZM5.67798 30.5228C5.67798 30.5228 5.67798 30.5111 5.67798 30.4995L7.35942 28.421C7.35942 28.421 7.3711 28.421 7.38277 28.421C7.83816 28.6779 9.43787 29.4836 11.1777 29.1683C13.0343 28.8297 13.4546 27.3468 14.0502 25.28C14.1436 24.9647 14.237 24.6378 14.3304 24.2991C15.0427 21.9638 15.9651 21.2866 16.2687 21.1231C16.5023 21.5318 17.1094 22.1857 18.6391 22.4426C20.3789 22.7345 21.6984 23.6102 22.1421 23.9372C22.1421 24.1474 21.9669 24.6261 21.8502 24.883C21.5349 25.5018 20.0753 27.0198 18.2771 28.5845C15.4514 31.0599 12.8591 32.7881 11.3528 33.2201C8.64385 33.9908 6.14505 31.1066 5.67798 30.5228ZM30.596 15.2497C29.8604 15.53 28.9496 14.9695 28.8678 14.9228L28.6577 14.736C28.7861 14.5375 29.043 14.1872 29.3933 14.1872C29.7786 14.1872 30.3858 14.012 30.8646 13.7551C31.5068 13.4048 31.8687 12.9611 31.8687 12.494V12.3189L31.6936 12.2955C31.6235 12.2955 31.4134 12.2371 31.3199 12.1087C31.2616 12.027 31.2616 11.8985 31.3199 11.7467C31.3783 11.5833 31.4834 11.3731 31.6469 11.3731C31.7753 11.3731 31.9155 11.4898 31.9388 11.5599C31.9855 11.7 32.1607 11.7467 32.4409 11.7C32.3825 13.4982 32.0322 14.7126 30.6077 15.2497H30.596ZM32.5693 11.2563C32.4643 11.2797 32.3358 11.303 32.2424 11.303C32.1256 11.1162 31.8921 10.9644 31.6352 10.9644C31.4484 10.9644 31.1098 11.0461 30.9229 11.6066C30.8295 11.8868 30.8529 12.1204 30.9696 12.3189C31.0864 12.5057 31.2849 12.5991 31.4367 12.6458C31.2499 13.2997 29.9421 13.7901 29.3933 13.7901C28.8795 13.7901 28.5409 14.1872 28.3541 14.4674C28.0972 14.2689 27.8169 14.1054 27.525 13.977C27.4316 13.4515 27.163 11.6066 27.6768 10.4273C27.852 10.0186 28.8562 8.02187 31.1565 8.72247C31.8454 8.93265 32.2891 9.36469 32.4876 10.0186C32.6394 10.5207 32.6044 11.0111 32.5693 11.2563ZM19.9702 16.1255C20.8109 15.3431 21.6517 14.806 22.4574 14.5375C23.5199 14.1755 24.5708 14.0003 25.5517 14.0237C26.0071 14.0354 26.4391 14.0937 26.8361 14.1755C26.9996 14.2105 27.1514 14.2572 27.3032 14.3156C27.6535 14.4557 27.9687 14.6542 28.2723 14.9111L28.5993 15.203L31.4601 17.7952C31.4834 17.8186 31.4951 17.8653 31.4834 17.9003C31.2849 18.3674 30.7361 19.4533 29.802 19.4884L27.128 17.9704L26.9529 17.8536V17.8887C26.5559 17.6668 26.0654 17.2698 26.0654 17.2698C25.9837 17.1997 25.8553 17.2114 25.7852 17.3048C25.7151 17.3866 25.7268 17.515 25.8202 17.5851C25.8436 17.6084 26.3223 17.9821 26.731 18.2273C26.1005 19.0563 23.4966 22.4426 22.3873 23.6102C21.9202 23.2599 20.5424 22.3491 18.7208 22.0455C17.1328 21.777 16.6774 21.0764 16.5606 20.7845C16.5606 20.7611 16.549 20.7378 16.5373 20.7261C16.7708 20.2941 18.102 17.8653 19.9819 16.1255H19.9702ZM22.2121 25.0581C22.2355 24.9881 22.4223 24.5677 22.5041 24.2174C22.8077 24.4042 23.4265 24.7779 24.0804 25.2216C25.2714 26.0506 26.0071 26.7396 26.2172 27.23C26.6259 28.1758 25.7969 29.9974 25.4583 30.6863C25.1313 30.3243 24.419 29.6704 23.2747 29.4019C22.072 29.1216 19.8184 28.748 18.8843 28.5962C20.5891 27.0782 21.9202 25.677 22.2355 25.0465L22.2121 25.0581ZM15.0193 15.962C15.0777 15.9153 15.1828 15.9153 15.2879 15.962L15.031 16.1955C14.9609 16.1138 14.996 15.9854 15.0193 15.9737V15.962ZM12.1936 18.6943C12.2636 18.5075 12.5322 18.2973 12.7307 18.1689C12.8124 18.4608 13.0109 18.6943 13.1861 18.8695C12.9876 18.9162 12.7891 18.9512 12.5906 18.9863C12.4271 19.0096 12.3103 18.9863 12.2519 18.9279C12.1819 18.8578 12.1702 18.7878 12.2052 18.706L12.1936 18.6943ZM11.9133 18.3557C11.9133 18.3557 11.7615 18.2039 11.96 17.9704C12.1118 17.7836 12.3687 17.6201 12.4972 17.55C12.5789 17.5033 12.684 17.4916 12.7424 17.5033C12.7657 17.5033 12.7774 17.515 12.7891 17.5267C12.8007 17.5384 12.8124 17.5734 12.8241 17.5851C12.8241 17.5851 12.8241 17.55 12.8475 17.5267L12.8708 17.55C12.8241 17.5967 12.7891 17.6551 12.754 17.7135C12.754 17.7135 12.6957 17.7369 12.6606 17.7485C12.6606 17.7485 12.1819 17.9937 11.9367 18.3557H11.9133ZM11.8082 17.4683C11.8666 17.2581 12.2753 17.0129 12.5322 16.9195C12.6373 16.8845 12.7657 16.8728 12.8241 16.9312V16.9545C12.8241 16.9779 12.8358 17.0596 12.754 17.0946C12.6139 17.0713 12.4388 17.0946 12.287 17.1881C12.1702 17.2464 11.9717 17.3749 11.7849 17.5384C11.7849 17.5033 11.7849 17.48 11.7849 17.4683H11.8082ZM15.3463 17.5617V17.6434C15.2412 18.0872 14.9376 18.7994 14.5055 18.9746C14.272 19.068 14.0151 18.9979 13.7115 18.7761C13.6531 18.7411 13.6064 18.6943 13.5481 18.6476C13.2912 18.4258 13.1627 18.2273 13.116 18.0288C13.116 17.9937 13.116 17.9587 13.116 17.9237C13.116 17.877 13.1277 17.8536 13.151 17.842C13.1744 17.8303 13.2445 17.8303 13.3612 17.877C13.5948 17.9821 13.6882 18.0872 13.8283 18.2273C13.8984 18.309 13.9918 18.3908 14.1085 18.4958L14.2253 18.6009L14.3537 18.5075C14.4238 18.4608 14.7624 18.1922 14.8675 17.9821C14.9142 17.8887 14.8675 17.7602 14.7741 17.7135C14.6807 17.6668 14.5522 17.7135 14.5055 17.8069C14.4705 17.877 14.3537 17.9937 14.237 18.0872C14.1903 18.0405 14.1436 17.9937 14.1085 17.9587C13.9567 17.8069 13.8166 17.6668 13.5247 17.5267C13.3963 17.4683 13.2912 17.4449 13.1978 17.4449C13.1861 17.3982 13.1627 17.3632 13.1394 17.3399C13.2094 17.2464 13.2445 17.1413 13.2445 17.0479C13.4079 17.0012 13.8867 16.9195 14.669 16.9896H14.7624L15.6732 16.1839C15.8133 16.289 15.9534 16.4291 16.0936 16.5809C16.1987 16.6976 16.2804 16.8144 16.3388 16.9195L15.3463 17.5734V17.5617ZM16.4906 17.4683C16.4906 17.4683 16.4322 17.5033 16.3738 17.4916C16.3388 17.4916 16.3037 17.4683 16.2687 17.4216L16.5023 17.2698C16.5256 17.3749 16.5256 17.4333 16.5023 17.4683H16.4906ZM16.6657 16.686C16.584 16.5575 16.4906 16.4291 16.3972 16.3123C16.257 16.1372 16.1169 16.0087 15.9768 15.8919L16.2103 15.6818L16.9576 16.4991L16.6774 16.686H16.6657ZM17.6349 16.5692L17.5999 16.6042L17.4481 16.4408C17.4481 16.4408 17.4481 16.4174 17.4364 16.4174C17.413 16.394 17.3897 16.3707 17.3663 16.359L16.3154 15.2147C17.6699 14.0354 18.7325 13.253 19.0127 13.218C19.2463 13.183 21.0328 13.4048 23.7768 13.7785C23.2981 13.8719 22.8193 13.9886 22.3289 14.1638C21.4882 14.4557 20.6241 14.9928 19.76 15.7752C19.5499 15.7518 19.363 15.7401 19.2346 15.7285C18.5573 15.7051 18.0786 16.1372 17.6349 16.5692ZM0.388449 28.1057C2.24504 26.1324 4.72049 25.3617 5.02409 25.2683C5.10582 25.28 5.17588 25.3734 5.23427 25.4668C4.42858 25.8521 1.80133 27.1599 0.692042 28.4794C0.563599 28.3626 0.470185 28.2225 0.411802 28.1525C0.400125 28.1291 0.400125 28.1057 0.400125 28.1057H0.388449ZM0.983959 28.748C2.02318 27.4869 4.6154 26.2024 5.40942 25.8171C5.43277 25.8171 5.44445 25.8171 5.4678 25.8171C5.49115 25.8171 5.51451 25.8288 5.52618 25.8521C5.72469 26.0974 5.99325 26.5294 6.14505 26.9498C6.18008 27.0315 6.21511 27.1716 6.22678 27.2884C6.08666 27.195 5.92319 27.1599 5.74804 27.2066C5.38606 27.3001 4.90732 27.4869 4.70882 27.8605C4.59205 28.0707 4.58037 28.3159 4.68546 28.5845C4.68546 28.5845 4.68546 28.6195 4.72049 28.6662C2.42019 29.7288 1.32258 29.0516 0.983959 28.7596V28.748ZM5.19924 28.7129C5.1175 28.5728 5.05912 28.456 5.04744 28.4327C4.98906 28.2809 5.00073 28.1525 5.04744 28.0474C5.15253 27.8605 5.42109 27.6971 5.82978 27.592C5.91151 27.5686 6.00493 27.6036 6.03996 27.6854C6.06331 27.7438 6.09834 27.7905 6.14505 27.8489C6.33187 28.1174 6.60044 28.351 6.77559 28.4911L5.88816 29.5887C5.57289 29.3435 5.316 28.9465 5.18756 28.7246L5.19924 28.7129Z" fill="white"/>
</svg>
