<svg width="301" height="135" viewBox="0 0 301 135" fill="none" xmlns="http://www.w3.org/2000/svg">
<path d="M128.731 2.49081C128.731 1.63954 129.425 0.851318 130.371 0.851318H165.809C166.755 0.851318 167.449 1.63954 167.449 2.49081V11.9179C167.449 12.7692 166.755 13.5574 165.809 13.5574H142.099V24.2772H161.616C162.467 24.2772 163.255 25.0654 163.255 25.9167V35.3438C163.255 36.2897 162.499 36.9833 161.616 36.9833H142.099V48.6489H165.809C166.755 48.6489 167.449 49.4371 167.449 50.2884V59.7155C167.449 60.5668 166.755 61.355 165.809 61.355H130.371C129.425 61.355 128.731 60.5668 128.731 59.7155V2.49081Z" fill="#370C56"/>
<path d="M172.556 55.5537C171.863 54.86 171.61 54.0718 172.209 52.9683L176.15 45.9689C176.844 44.8339 178.2 44.8339 179.051 45.4644C181.447 47.1039 185.798 50.2253 191.221 50.2253C194.658 50.2253 197.117 48.0813 197.117 45.0546C197.117 41.4288 193.964 39.0956 188.289 36.3211C179.997 32.2539 171.673 27.5876 171.673 17.2147C171.673 8.67038 178.263 0.0314941 191.442 0.0314941C200.333 0.0314941 207.206 4.60317 209.76 6.52642C210.801 7.12547 210.611 8.67037 210.265 9.30095L205.914 15.9535C205.315 16.8994 203.864 17.593 202.162 16.5526C200.207 15.1653 195.131 11.8863 190.591 11.8863C186.996 11.8863 185.357 14.1249 185.357 16.6472C185.357 19.4847 188.699 21.7548 194.689 24.687C202.225 28.4074 211.967 32.6322 211.967 44.3925C211.967 53.2836 204.337 62.2693 191.757 62.2693C180.628 62.2693 174.479 57.603 172.493 55.6167L172.556 55.5537Z" fill="#370C56"/>
<path d="M156.224 72.7998C164.8 72.7998 171.106 75.4798 176.939 80.8397C177.695 81.5333 177.695 82.5738 177.033 83.2674L170.349 90.2668C169.75 90.8658 168.804 90.8658 168.205 90.2668C164.706 87.1454 160.828 85.8527 156.634 85.8527C146.955 85.8527 139.861 93.9872 139.861 103.635C139.861 113.283 147.049 121.165 156.729 121.165C161.427 121.165 165.115 119.683 168.205 117.003C168.804 116.499 169.908 116.499 170.444 117.098L177.128 124.255C177.727 124.854 177.632 125.989 177.033 126.588C171.201 132.295 163.854 134.975 156.224 134.975C139.104 134.975 125.326 121.228 125.326 103.95C125.326 86.6725 139.104 72.7683 156.224 72.7683V72.7998Z" fill="#370C56"/>
<path d="M209.193 72.7998C226.313 72.7998 239.996 86.704 239.996 103.982C239.996 121.26 226.313 135.006 209.193 135.006C192.073 135.006 178.452 121.26 178.452 103.982C178.452 86.704 192.073 72.7998 209.193 72.7998ZM209.193 121.165C218.62 121.165 226.313 113.377 226.313 103.982C226.313 94.5862 218.62 86.6094 209.193 86.6094C199.766 86.6094 192.167 94.4601 192.167 103.982C192.167 113.503 199.86 121.165 209.193 121.165Z" fill="#370C56"/>
<path d="M246.712 75.2906C246.712 74.4393 247.406 73.6511 248.352 73.6511H258.535C259.387 73.6511 260.175 74.4393 260.175 75.2906V121.417H280.542C281.488 121.417 282.182 122.205 282.182 123.057V132.484C282.182 133.335 281.488 134.123 280.542 134.123H248.352C247.406 134.123 246.712 133.335 246.712 132.484V75.2906Z" fill="#370C56"/>
<path d="M286.943 75.2906C286.943 74.4393 287.699 73.6511 288.582 73.6511H298.861C299.712 73.6511 300.5 74.4393 300.5 75.2906V132.484C300.5 133.335 299.743 134.123 298.861 134.123H288.582C287.731 134.123 286.943 133.335 286.943 132.484V75.2906Z" fill="#370C56"/>
<path d="M209.26 104.297C211.611 104.297 213.517 102.392 213.517 100.041C213.517 97.6901 211.611 95.7844 209.26 95.7844C206.91 95.7844 205.004 97.6901 205.004 100.041C205.004 102.392 206.91 104.297 209.26 104.297Z" fill="#370C56"/>
<path d="M207.684 101.082L206.076 112.243H212.981L210.868 101.082H207.684Z" fill="#370C56"/>
<path d="M17.5971 72.3901C17.5971 72.3901 18.2907 74.1557 17.3764 74.7232C17.2818 74.5971 17.2188 74.5025 17.1557 74.3764C16.935 73.998 16.4936 73.8089 16.0837 73.9034C14.9487 74.1872 13.1831 74.9124 13.8136 76.6149C13.8136 76.6149 13.9398 76.9302 14.192 77.3716C5.67923 81.6595 2.43176 77.5293 2.43176 77.5293C5.11171 73.8719 12.8047 70.0885 14.8541 69.1111C15.0117 69.048 15.1694 69.0165 15.327 69.048C15.5162 69.048 15.7054 69.1741 15.8315 69.3318C16.3359 69.9623 17.1242 71.192 17.5971 72.4216V72.3901Z" fill="#370C56"/>
<path d="M86.2981 129.867L38.1852 102.279L30.6183 102.878L86.6134 135.006V129.835L86.5188 129.993L86.2981 129.867Z" fill="#370C56"/>
<path d="M112.972 32.6007C112.972 16.3319 101.968 2.86912 87.5909 0.378345L87.3386 0.441402C80.7806 1.73408 74.2857 5.73823 69.5564 11.4134C64.5749 17.3723 61.8634 24.624 61.8634 31.8441C61.8634 33.1367 61.958 34.4294 62.0841 35.7221C61.6742 35.659 61.2328 35.596 60.8229 35.5644C60.6968 34.3348 60.6338 33.1052 60.6338 31.8756C60.6338 24.3717 63.4714 16.8364 68.6106 10.6567C72.8354 5.61212 78.3845 1.82867 84.1542 0.0315295C83.7128 0.0315295 83.2714 0 82.7985 0C66.1513 0 52.6255 14.5978 52.6255 32.6323C52.6255 33.2944 52.6255 33.988 52.6885 34.6501C52.2156 34.6186 51.8688 34.6186 51.6796 34.6501C50.3239 34.8078 46.5719 37.8976 43.6713 40.4199C43.4821 40.5775 43.3875 40.7982 43.356 41.0505C43.356 41.2396 43.3875 41.4288 43.5137 41.5864L42.6939 42.3431C41.7165 41.8387 40.9283 41.9333 40.4238 42.2801C40.1401 42.4692 39.9509 42.8791 39.9194 43.3205C39.8878 43.7619 40.014 44.1718 40.2977 44.5186L39.9509 44.8024C37.7124 44.6132 36.3566 44.897 35.8837 45.0231C35.4423 44.6132 34.7171 44.4871 33.992 44.7393C33.992 44.7393 31.7534 45.5275 31.3436 46.9148C31.1859 47.4193 31.2805 47.8922 31.6273 48.3336C31.2174 49.0903 31.312 49.8154 31.8795 50.383C32.0057 50.5091 32.1318 50.6037 32.2894 50.6667C32.2894 51.1081 32.4471 51.518 32.7939 51.8648C33.1092 52.1801 33.5821 52.3693 34.1496 52.3693C34.3073 52.3693 34.4334 52.3693 34.591 52.3693C35.4423 52.2432 36.2936 52.0855 37.1133 51.8333C37.7754 52.2747 38.4375 52.4954 39.0681 52.4954C39.3834 52.4954 39.6987 52.4323 40.014 52.3062C41.6219 51.6756 42.5363 49.5002 42.8831 48.1444L43.5137 47.7345C43.8605 48.239 44.3019 48.3651 44.6172 48.3967C44.6802 48.3967 44.7117 48.3967 44.7748 48.3967C45.2162 48.3967 45.5946 48.2075 45.8153 47.9868C46.2882 47.5138 46.2882 46.8202 46.0044 46.0635L47.0449 45.3699L47.3917 45.7482C47.5493 45.9374 47.77 46.032 48.0223 46.032C48.243 46.032 48.4637 45.9374 48.6213 45.7798L48.8735 45.5591C49.9771 44.5186 51.0175 43.5097 52.4048 43.5728C52.5309 43.5728 52.657 43.5728 52.8146 43.5728C47.5809 48.775 44.0812 55.5852 44.0496 55.6483L43.9866 55.8059V55.9636C43.9866 55.9636 43.9866 55.9636 44.0181 56.0266C43.0092 56.5311 40.2031 58.4859 38.1538 65.2961C37.87 66.2104 37.6178 67.0932 37.3655 67.9445C35.8206 73.3359 34.8117 76.8671 30.4607 77.6869C26.1413 78.4751 22.0741 76.4257 20.9391 75.7952C20.4661 75.5114 19.8671 75.6375 19.5203 76.0789C19.1419 75.8267 18.6059 75.3537 18.1961 74.8178C18.669 73.9034 18.1961 72.5792 18.133 72.39C17.6601 71.1604 16.8718 69.8677 16.3043 69.1426C16.1782 68.9849 16.0521 68.8903 15.8945 68.7958C15.7999 68.512 15.2324 67.1247 14.0658 67.1247H13.9081C13.5929 67.2193 6.34124 69.2372 0.792179 75.133C0.413834 75.5114 0.413834 76.142 0.729122 76.6149C1.01288 77.0248 1.48581 77.5923 2.05333 78.0337C2.33709 78.3805 3.91353 79.9885 7.22405 79.9885C8.9266 79.9885 11.0706 79.5471 13.7505 78.2859C14.2234 79.0741 14.9171 79.9885 15.7683 80.6821L14.9801 81.6595C14.6333 82.0694 14.6333 82.6369 14.9801 83.0783C16.1782 84.5601 21.8534 91.1181 28.6321 91.1181C29.5464 91.1181 30.4923 90.992 31.4381 90.7083C33.2983 90.1723 35.4738 89.0688 37.7124 87.6815L30.0824 101.649L37.9015 101.018L50.4185 78.1283C50.6707 78.1598 51.1436 78.2544 51.7111 78.3174L39.1312 101.333L86.6135 128.543V64.8862C101.464 62.8684 112.972 49.1533 112.972 32.5377V32.6007ZM15.8314 82.4162C15.8314 82.4162 15.8314 82.3847 15.8314 82.3531L20.3715 76.741C20.3715 76.741 20.4031 76.741 20.4346 76.741C21.6642 77.4346 25.9837 79.6101 30.6814 78.7589C35.6945 77.8445 36.8296 73.8404 38.4375 68.2598C38.6898 67.4085 38.942 66.5257 39.1942 65.6114C41.1175 59.3056 43.6082 57.4769 44.428 57.0355C45.0586 58.139 46.6981 59.9046 50.8283 60.5983C55.5261 61.3865 59.0889 63.7512 60.287 64.634C60.287 65.2015 59.814 66.4942 59.4987 67.1878C58.6475 68.8588 54.7064 72.9576 49.8509 77.1824C42.221 83.8665 35.2216 88.5328 31.1544 89.6993C23.8397 91.7802 17.0925 83.9926 15.8314 82.4162ZM83.1138 41.1766C81.1275 41.9333 78.6682 40.4199 78.4475 40.2938L77.88 39.7893C78.2268 39.2533 78.9205 38.3074 79.8663 38.3074C80.9068 38.3074 82.5463 37.8345 83.8389 37.1409C85.573 36.195 86.5504 34.9969 86.5504 33.7358V33.2628L86.0775 33.1998C85.8883 33.1998 85.3208 33.0421 85.0686 32.6953C84.9109 32.4746 84.9109 32.1278 85.0686 31.7179C85.2262 31.2765 85.51 30.709 85.9514 30.709C86.2982 30.709 86.6765 31.0243 86.7396 31.2135C86.8657 31.5918 87.3386 31.7179 88.0953 31.5918C87.9377 36.4473 86.9918 39.7262 83.1453 41.1766H83.1138ZM88.4421 30.3937C88.1584 30.4568 87.8116 30.5198 87.5593 30.5198C87.2441 30.0154 86.6135 29.6055 85.9198 29.6055C85.4154 29.6055 84.501 29.8262 83.9966 31.3396C83.7444 32.0963 83.8074 32.7269 84.1227 33.2628C84.438 33.7673 84.974 34.0195 85.3839 34.1457C84.8794 35.9113 81.3482 37.2355 79.8663 37.2355C78.4791 37.2355 77.5647 38.3074 77.0603 39.0641C76.3666 38.5281 75.6099 38.0867 74.8217 37.7399C74.5695 36.3211 73.8443 31.3396 75.2316 28.1552C75.7045 27.0517 78.416 21.6603 84.6272 23.552C86.4874 24.1195 87.6854 25.2861 88.2214 27.0517C88.6313 28.4074 88.5367 29.7316 88.4421 30.3937ZM54.4226 43.5412C56.6927 41.4288 58.9627 39.9785 61.1382 39.2533C64.0073 38.2759 66.8449 37.803 69.4934 37.866C70.723 37.8976 71.8895 38.0552 72.9615 38.2759C73.4029 38.3705 73.8128 38.4966 74.2227 38.6543C75.1685 39.0326 76.0198 39.5686 76.8396 40.2622L77.7224 41.0505L85.4469 48.0498C85.51 48.1129 85.5415 48.239 85.51 48.3336C84.974 49.5947 83.4921 52.5269 80.9698 52.6215L73.7497 48.5228L73.2768 48.2075V48.3021C72.2048 47.703 70.8806 46.631 70.8806 46.631C70.6599 46.4419 70.3131 46.4734 70.1239 46.7256C69.9348 46.9463 69.9663 47.2931 70.2185 47.4823C70.2816 47.5454 71.5743 48.5543 72.6778 49.2164C70.9752 51.4549 63.9443 60.5983 60.9491 63.7512C59.6879 62.8053 55.9675 60.3461 51.049 59.5263C46.7611 58.8011 45.5315 56.9094 45.2162 56.1212C45.2162 56.0581 45.1847 55.9951 45.1532 55.9636C45.7837 54.797 49.378 48.239 54.4541 43.5412H54.4226ZM60.4761 67.6607C60.5392 67.4716 61.0436 66.3365 61.2643 65.3907C62.0841 65.8951 63.7551 66.904 65.5207 68.1021C68.7367 70.3407 70.723 72.2009 71.2905 73.5251C72.394 76.0789 70.1555 80.9974 69.2411 82.8576C68.3583 81.8802 66.4351 80.1146 63.3452 79.3894C60.0978 78.6327 54.0127 77.6238 51.4904 77.2139C56.0936 73.1152 59.6879 69.3318 60.5392 67.6292L60.4761 67.6607ZM41.0544 43.0998C41.2121 42.9737 41.4958 42.9737 41.7796 43.0998L41.0859 43.7304C40.8968 43.5097 40.9914 43.1629 41.0544 43.1313V43.0998ZM33.4245 50.4776C33.6136 49.9731 34.3388 49.4056 34.8748 49.0588C35.0955 49.847 35.6315 50.4776 36.1044 50.9505C35.5684 51.0766 35.0324 51.1712 34.4964 51.2658C34.055 51.3288 33.7397 51.2658 33.5821 51.1081C33.3929 50.919 33.3614 50.7298 33.456 50.5091L33.4245 50.4776ZM32.6678 49.5632C32.6678 49.5632 32.2579 49.1533 32.7939 48.5228C33.2037 48.0183 33.8974 47.5769 34.2442 47.3877C34.4649 47.2616 34.7487 47.2301 34.9063 47.2616C34.9694 47.2616 35.0009 47.2931 35.0324 47.3247C35.0639 47.3562 35.0955 47.4508 35.127 47.4823C35.127 47.4823 35.127 47.3877 35.1901 47.3247L35.2531 47.3877C35.127 47.5138 35.0324 47.6715 34.9378 47.8291C34.9378 47.8291 34.7802 47.8922 34.6856 47.9237C34.6856 47.9237 33.3929 48.5858 32.7308 49.5632H32.6678ZM32.384 47.167C32.5416 46.5995 33.6452 45.9374 34.3388 45.6852C34.6225 45.5906 34.9694 45.5591 35.127 45.7167V45.7798C35.127 45.8428 35.1585 46.0635 34.9378 46.1581C34.5595 46.0951 34.0866 46.1581 33.6767 46.4103C33.3614 46.568 32.8254 46.9148 32.3209 47.3562C32.3209 47.2616 32.3209 47.1986 32.3209 47.167H32.384ZM41.9372 47.4193V47.64C41.6535 48.8381 40.8337 50.7613 39.6671 51.2342C39.0366 51.4865 38.3429 51.2973 37.5232 50.6983C37.3655 50.6037 37.2394 50.4775 37.0818 50.3514C36.3882 49.7524 36.0413 49.2164 35.9152 48.6804C35.9152 48.5858 35.9152 48.4912 35.9152 48.3967C35.9152 48.2705 35.9468 48.2075 36.0098 48.176C36.0729 48.1444 36.262 48.1444 36.5773 48.2705C37.2079 48.5543 37.4601 48.8381 37.8385 49.2164C38.0277 49.4371 38.2799 49.6578 38.5952 49.9416L38.9105 50.2253L39.2573 49.9731C39.4464 49.847 40.3608 49.1218 40.6445 48.5543C40.7707 48.3021 40.6445 47.9552 40.3923 47.8291C40.1401 47.703 39.7933 47.8291 39.6671 48.0814C39.5726 48.2705 39.2573 48.5858 38.942 48.8381C38.8159 48.7119 38.6898 48.5858 38.5952 48.4912C38.1853 48.0814 37.8069 47.703 37.0187 47.3247C36.6719 47.167 36.3882 47.104 36.1359 47.104C36.1044 46.9779 36.0413 46.8833 35.9783 46.8202C36.1675 46.568 36.262 46.2842 36.262 46.032C36.7034 45.9059 37.9961 45.6852 40.1085 45.8743H40.3608L42.82 43.6989C43.1984 43.9826 43.5767 44.361 43.9551 44.7708C44.2388 45.0861 44.4595 45.4014 44.6172 45.6852L41.9372 47.4508V47.4193ZM45.027 47.167C45.027 47.167 44.8694 47.2616 44.7117 47.2301C44.6172 47.2301 44.5226 47.167 44.428 47.0409L45.0586 46.631C45.1216 46.9148 45.1216 47.0724 45.0586 47.167H45.027ZM45.5 45.0546C45.2793 44.7078 45.027 44.361 44.7748 44.0457C44.3965 43.5727 44.0181 43.2259 43.6398 42.9106L44.2703 42.3431L46.2882 44.5501L45.5315 45.0546H45.5ZM48.1169 44.7393L48.0223 44.8339L47.6124 44.3925C47.6124 44.3925 47.6124 44.3294 47.5809 44.3294C47.5178 44.2664 47.4548 44.2033 47.3917 44.1718L44.5541 41.082C48.2114 37.8976 51.0806 35.7851 51.8372 35.6906C52.4678 35.596 57.2917 36.195 64.701 37.2039C63.4083 37.4562 62.1156 37.7715 60.7914 38.2444C58.5213 39.0326 56.1882 40.4829 53.8551 42.5954C53.2876 42.5323 52.7831 42.5008 52.4363 42.4692C50.6076 42.4062 49.3149 43.5728 48.1169 44.7393ZM1.54887 75.8897C6.56194 70.5614 13.246 68.4805 14.0658 68.2282C14.2865 68.2598 14.4757 68.512 14.6333 68.7642C12.4578 69.8047 5.36385 73.3359 2.36862 76.8987C2.0218 76.5834 1.76957 76.205 1.61193 76.0159C1.5804 75.9528 1.5804 75.8897 1.5804 75.8897H1.54887ZM3.15684 77.6238C5.9629 74.2187 12.9623 70.7505 15.1062 69.7101C15.1693 69.7101 15.2008 69.7101 15.2639 69.7101C15.3269 69.7101 15.39 69.7416 15.4215 69.8047C15.9575 70.4668 16.6827 71.6334 17.0925 72.7684C17.1871 72.9891 17.2817 73.3674 17.3133 73.6827C16.9349 73.4305 16.4935 73.3359 16.0206 73.462C15.0432 73.7142 13.7505 74.2187 13.2145 75.2276C12.8992 75.7952 12.8677 76.4573 13.1515 77.1824C13.1515 77.1824 13.1515 77.277 13.246 77.4031C7.03487 80.2722 4.07117 78.4436 3.15684 77.6553V77.6238ZM14.5387 77.5292C14.318 77.1509 14.1604 76.8356 14.1288 76.7725C13.9712 76.3627 14.0027 76.0159 14.1288 75.7321C14.4126 75.2276 15.1378 74.7862 16.2413 74.5025C16.462 74.4394 16.7142 74.534 16.8088 74.7547C16.8718 74.9123 16.9664 75.0385 17.0925 75.1961C17.597 75.9213 18.3222 76.5518 18.7951 76.9302L16.3989 79.8939C15.5476 79.2318 14.854 78.1598 14.5072 77.5608L14.5387 77.5292Z" fill="#370C56"/>
</svg>
